<mxfile host="Electron" modified="2024-04-02T09:16:12.159Z" agent="Mozilla/5.0 (Macintosh; Intel Mac OS X 10_15_7) AppleWebKit/537.36 (KHTML, like Gecko) draw.io/24.1.0 Chrome/120.0.6099.109 Electron/28.1.0 Safari/537.36" etag="Y82iIRO6PXWKeV0M-iY7" version="24.1.0" type="device">
  <diagram name="Page-1" id="UTq4NjVQAELwLeZ_qVDv">
    <mxGraphModel dx="1456" dy="1007" grid="1" gridSize="10" guides="1" tooltips="1" connect="1" arrows="1" fold="1" page="1" pageScale="1" pageWidth="1169" pageHeight="827" math="0" shadow="0">
      <root>
        <mxCell id="0" />
        <mxCell id="1" parent="0" />
        <mxCell id="6HTZo5-uObTq7KXjLNjV-1" value="DECK" style="rounded=0;whiteSpace=wrap;html=1;align=right;" vertex="1" parent="1">
          <mxGeometry x="740" y="115" width="350" height="340" as="geometry" />
        </mxCell>
        <mxCell id="6HTZo5-uObTq7KXjLNjV-2" value="BUTTON" style="rounded=0;whiteSpace=wrap;html=1;align=right;" vertex="1" parent="1">
          <mxGeometry x="780" y="140" width="210" height="260" as="geometry" />
        </mxCell>
        <mxCell id="6HTZo5-uObTq7KXjLNjV-3" value="activation" style="shape=step;perimeter=stepPerimeter;whiteSpace=wrap;html=1;fixedSize=1;fillColor=#fff2cc;strokeColor=#FFFF00;fontColor=#FF8000;size=10;strokeWidth=2;fontStyle=2" vertex="1" parent="1">
          <mxGeometry x="810" y="150" width="100" height="30" as="geometry" />
        </mxCell>
        <mxCell id="6HTZo5-uObTq7KXjLNjV-4" value="activation" style="shape=step;perimeter=stepPerimeter;whiteSpace=wrap;html=1;fixedSize=1;fillColor=#fff2cc;strokeColor=#d6b656;fontColor=#44475A;size=10;fontStyle=0" vertex="1" parent="1">
          <mxGeometry x="810" y="190" width="100" height="30" as="geometry" />
        </mxCell>
        <mxCell id="6HTZo5-uObTq7KXjLNjV-6" value="representation" style="shape=dataStorage;whiteSpace=wrap;html=1;fixedSize=1;size=10;fillColor=#f8cecc;strokeColor=#b85450;fontColor=#44475A;fontStyle=0" vertex="1" parent="1">
          <mxGeometry x="810" y="230" width="100" height="30" as="geometry" />
        </mxCell>
        <mxCell id="6HTZo5-uObTq7KXjLNjV-7" value="representation" style="shape=dataStorage;whiteSpace=wrap;html=1;fixedSize=1;size=10;fillColor=#f8cecc;strokeColor=#b85450;fontColor=#44475A;fontStyle=0" vertex="1" parent="1">
          <mxGeometry x="810" y="270" width="100" height="30" as="geometry" />
        </mxCell>
        <mxCell id="6HTZo5-uObTq7KXjLNjV-8" value="representation" style="shape=dataStorage;whiteSpace=wrap;html=1;fixedSize=1;size=10;fillColor=#f8cecc;strokeColor=#FF0000;fontColor=#FF0000;strokeWidth=2;fontStyle=2" vertex="1" parent="1">
          <mxGeometry x="810" y="310" width="100" height="30" as="geometry" />
        </mxCell>
        <mxCell id="6HTZo5-uObTq7KXjLNjV-9" value="representation" style="shape=dataStorage;whiteSpace=wrap;html=1;fixedSize=1;size=10;fillColor=#f8cecc;strokeColor=#b85450;fontColor=#44475A;fontStyle=0" vertex="1" parent="1">
          <mxGeometry x="810" y="350" width="100" height="30" as="geometry" />
        </mxCell>
        <mxCell id="6HTZo5-uObTq7KXjLNjV-10" value="PAGE" style="rounded=0;whiteSpace=wrap;html=1;align=left;" vertex="1" parent="1">
          <mxGeometry x="120" y="110" width="330" height="290" as="geometry" />
        </mxCell>
        <mxCell id="6HTZo5-uObTq7KXjLNjV-11" value="BUTTON&lt;div&gt;DEFINITION&lt;/div&gt;" style="rounded=0;whiteSpace=wrap;html=1;align=left;" vertex="1" parent="1">
          <mxGeometry x="210" y="130" width="220" height="190" as="geometry" />
        </mxCell>
        <mxCell id="6HTZo5-uObTq7KXjLNjV-19" style="edgeStyle=orthogonalEdgeStyle;rounded=0;orthogonalLoop=1;jettySize=auto;html=1;entryX=0;entryY=0.5;entryDx=0;entryDy=0;" edge="1" parent="1" source="6HTZo5-uObTq7KXjLNjV-12" target="6HTZo5-uObTq7KXjLNjV-3">
          <mxGeometry relative="1" as="geometry" />
        </mxCell>
        <mxCell id="6HTZo5-uObTq7KXjLNjV-12" value="type" style="shape=step;perimeter=stepPerimeter;whiteSpace=wrap;html=1;fixedSize=1;fillColor=#fff2cc;strokeColor=#FFFF00;fontColor=#FF8000;size=10;strokeWidth=2;fontStyle=2" vertex="1" parent="1">
          <mxGeometry x="290" y="150" width="100" height="30" as="geometry" />
        </mxCell>
        <mxCell id="6HTZo5-uObTq7KXjLNjV-15" style="edgeStyle=orthogonalEdgeStyle;rounded=0;orthogonalLoop=1;jettySize=auto;html=1;entryX=0;entryY=0.5;entryDx=0;entryDy=0;" edge="1" parent="1" source="6HTZo5-uObTq7KXjLNjV-14" target="6HTZo5-uObTq7KXjLNjV-8">
          <mxGeometry relative="1" as="geometry" />
        </mxCell>
        <mxCell id="6HTZo5-uObTq7KXjLNjV-14" value="representation" style="shape=dataStorage;whiteSpace=wrap;html=1;fixedSize=1;size=10;fillColor=#f8cecc;strokeColor=#FF0000;fontColor=#FF0000;strokeWidth=2;fontStyle=2" vertex="1" parent="1">
          <mxGeometry x="290" y="270" width="100" height="30" as="geometry" />
        </mxCell>
        <mxCell id="6HTZo5-uObTq7KXjLNjV-18" style="edgeStyle=orthogonalEdgeStyle;rounded=0;orthogonalLoop=1;jettySize=auto;html=1;entryX=0;entryY=0.5;entryDx=0;entryDy=0;" edge="1" parent="1" source="6HTZo5-uObTq7KXjLNjV-16" target="6HTZo5-uObTq7KXjLNjV-2">
          <mxGeometry relative="1" as="geometry" />
        </mxCell>
        <mxCell id="6HTZo5-uObTq7KXjLNjV-25" value="which button" style="edgeLabel;html=1;align=center;verticalAlign=middle;resizable=0;points=[];" vertex="1" connectable="0" parent="6HTZo5-uObTq7KXjLNjV-18">
          <mxGeometry x="0.3618" y="2" relative="1" as="geometry">
            <mxPoint y="-6" as="offset" />
          </mxGeometry>
        </mxCell>
        <mxCell id="6HTZo5-uObTq7KXjLNjV-16" value="index" style="text;html=1;align=center;verticalAlign=middle;whiteSpace=wrap;rounded=0;" vertex="1" parent="1">
          <mxGeometry x="320" y="210" width="60" height="30" as="geometry" />
        </mxCell>
        <mxCell id="6HTZo5-uObTq7KXjLNjV-20" style="edgeStyle=orthogonalEdgeStyle;rounded=0;orthogonalLoop=1;jettySize=auto;html=1;exitX=0.5;exitY=1;exitDx=0;exitDy=0;" edge="1" parent="1" source="6HTZo5-uObTq7KXjLNjV-10" target="6HTZo5-uObTq7KXjLNjV-10">
          <mxGeometry relative="1" as="geometry" />
        </mxCell>
        <mxCell id="6HTZo5-uObTq7KXjLNjV-23" style="edgeStyle=orthogonalEdgeStyle;rounded=0;orthogonalLoop=1;jettySize=auto;html=1;entryX=0.5;entryY=0;entryDx=0;entryDy=0;" edge="1" parent="1" source="6HTZo5-uObTq7KXjLNjV-21" target="6HTZo5-uObTq7KXjLNjV-3">
          <mxGeometry relative="1" as="geometry" />
        </mxCell>
        <mxCell id="6HTZo5-uObTq7KXjLNjV-21" value="BUTTON&lt;div&gt;CAPABILITIES&lt;/div&gt;" style="text;html=1;align=center;verticalAlign=middle;whiteSpace=wrap;rounded=0;" vertex="1" parent="1">
          <mxGeometry x="830" y="30" width="60" height="30" as="geometry" />
        </mxCell>
        <mxCell id="6HTZo5-uObTq7KXjLNjV-24" value="DECK USAGE (DEFINITION)&lt;div&gt;&lt;br&gt;&lt;/div&gt;" style="text;html=1;align=center;verticalAlign=middle;whiteSpace=wrap;rounded=0;" vertex="1" parent="1">
          <mxGeometry x="230" y="30" width="110" height="30" as="geometry" />
        </mxCell>
      </root>
    </mxGraphModel>
  </diagram>
</mxfile>
